<svg xmlns="http://www.w3.org/2000/svg" width="120" height="120" viewBox="0 0 120 120">
    <defs>
        <style>
            .cls-1{fill:#0288d1}.cls-2{fill:#fff}.cls-3{fill:rgba(0,0,0,.6)}
        </style>
    </defs>
    <g id="ic_guarantee" transform="translate(-199 -418)">
        <path id="Path_37467" d="M319 478l-4.9 3.336 4.467 3.9-5.264 2.725 3.965 4.406-5.555 2.067 3.4 4.854-5.765 1.377 2.786 5.231-5.889.669 2.134 5.529-5.927-.046 1.455 5.746-5.878-.756.756 5.878-5.745-1.455.045 5.927-5.529-2.135-.669 5.889-5.231-2.787-1.376 5.765-4.854-3.4-2.066 5.555-4.406-3.965-2.724 5.263-3.9-4.468L259 538l-3.336-4.9-3.9 4.467-2.725-5.264-4.406 3.965-2.067-5.555-4.854 3.4-1.377-5.765-5.231 2.786-.669-5.889-5.529 2.134.046-5.927-5.746 1.455.756-5.878-5.878.756 1.455-5.745-5.927.045 2.135-5.529-5.889-.669 2.787-5.231-5.765-1.376 3.4-4.854-5.555-2.066 3.965-4.406-5.263-2.724 4.467-3.9L199 478l4.9-3.336-4.467-3.9 5.264-2.725-3.965-4.406 5.555-2.067-3.4-4.854 5.765-1.377-2.786-5.231 5.889-.669-2.134-5.529 5.927.046-1.455-5.746 5.878.756-.756-5.878 5.745 1.455-.045-5.927 5.529 2.135.669-5.889 5.231 2.787 1.376-5.765 4.854 3.4 2.066-5.555 4.406 3.965 2.724-5.263 3.9 4.467L259 418l3.336 4.9 3.9-4.467 2.725 5.264 4.406-3.965 2.067 5.555 4.854-3.4 1.377 5.765 5.231-2.786.669 5.889 5.529-2.134-.046 5.927 5.746-1.455-.756 5.878 5.878-.756-1.455 5.745 5.927-.045-2.135 5.529 5.889.669-2.787 5.231 5.765 1.376-3.4 4.854 5.555 2.066-3.965 4.406 5.263 2.724-4.467 3.9z" class="cls-1" data-name="Path 37467"/>
        <circle id="Ellipse_444" cx="32" cy="32" r="32" class="cls-2" data-name="Ellipse 444" transform="translate(227 446)"/>
        <g id="Group_1635" data-name="Group 1635">
            <path id="Path_37468" d="M223.024 464.8l-6.54-3.1.055-.116 6.006.106.711-1.5-3.89-4.571.051-.109 6.541 3.1 1.089-2.3-10.566-5-1.239 2.616 4.681 5.544-.036.078-7.251-.118-1.254 2.647 10.566 5z" class="cls-2" data-name="Path 37468"/>
            <path id="Path_37469" d="M223.99 452.025c2.387 2.259 5.19 2.286 7.461-.113s2.1-5.2-.288-7.462l-.988-.936c-2.4-2.271-5.228-2.334-7.5.066s-2.085 5.227.326 7.509zm.346-6.862c.947-1 2.359-.961 3.825.428l1.019.965c1.473 1.395 1.553 2.766.605 3.767s-2.327 1-3.8-.393l-1.019-.964c-1.466-1.389-1.583-2.796-.63-3.803z" class="cls-2" data-name="Path 37469"/>
            <path id="Path_37470" d="M238.04 446.04l-3.492-6.047.089-.051 7.568 3.693 1.927-1.113-5.842-10.115-2.268 1.31 3.458 5.987-.082.047-7.526-3.638-1.934 1.117 5.842 10.115z" class="cls-2" data-name="Path 37470"/>
            <path id="Path_37471" d="M253.261 440.051l-.568-2.168-4.883 1.281-.66-2.516 4.576-1.2-.525-2-4.576 1.2-.64-2.441 4.882-1.281-.569-2.169-7.589 1.992 2.963 11.3z" class="cls-2" data-name="Path 37471"/>
            <path id="Path_37472" d="M257.536 439.873l2.824-.046-.068-4.142 3.786-7.605-3 .05-2.146 4.846h-.1l-2.3-4.774-3.1.051 4.037 7.553z" class="cls-2" data-name="Path 37472"/>
            <path id="Path_37473" d="M278.008 440.813a2.72 2.72 0 0 0-1.5-3.563l.044-.119a2.468 2.468 0 0 0 2.839-1.67c.622-1.685-.365-3.188-2.379-3.93l-4.854-1.79-4.037 10.953 4.934 1.819c2.132.787 4.219.287 4.953-1.7zm-3.922-8.226l1.557.572a1.347 1.347 0 0 1 .985 1.8c-.287.778-1 1.115-2.215.669l-1.276-.47zm-2.653 7.2l1.077-2.921 1.685.621c1.155.426 1.525 1.227 1.2 2.118s-1.118 1.228-2.538.7z" class="cls-2" data-name="Path 37473"/>
            <path id="Path_37474" d="M279.158 445.5l2.188-1.725 2.928 2.118-.96 2.613 2.442 1.767 3.819-11.664-2.8-2.028-9.9 7.263zm7.412-5.937l.1.076-1.61 4.3-2.1-1.515z" class="cls-2" data-name="Path 37474"/>
            <path id="Path_37475" d="M288.631 454.315c1.743 2.156 4.294 2.67 6.217 1.115l.267-.215-1.7-2.1a1.985 1.985 0 0 1-2.95-.246c-.887-1.1-.548-2.407 1-3.655l.971-.786c1.564-1.264 2.922-1.327 3.809-.23a2.011 2.011 0 0 1-.424 2.974l1.7 2.1.259-.209c1.963-1.588 2.014-4.193.266-6.356-2.045-2.529-4.821-2.628-7.424-.524l-.958.775c-2.593 2.092-3.077 4.828-1.033 7.357z" class="cls-2" data-name="Path 37475"/>
            <path id="Path_37476" d="M293.435 461.488l3.241-1.394 1.534.468-3.2 4.575 1.319 3.068 4.419-6.477 6.252 1.719-1.194-2.777-6.148-1.728-.047-.11 4.562-1.962-1.12-2.6-10.738 4.617z" class="cls-2" data-name="Path 37476"/>
            <path id="Path_37477" d="M221.887 500.206l-1.708 1.011 1.032 1.745-.427.252a1.9 1.9 0 0 1-2.647-.878c-.9-1.517-.071-2.722 1.439-3.615l1.215-.72c1.634-.967 2.976-.817 3.734.464a1.949 1.949 0 0 1-.442 2.7l1.4 2.357c1.8-1.125 2.639-3.521 1.044-6.216-1.7-2.879-4.492-3.356-7.165-1.774l-1.244.737c-2.629 1.555-3.846 4.085-2.007 7.192 1.674 2.827 4.259 3.1 6.218 1.937l1.951-1.155z" class="cls-2" data-name="Path 37477"/>
            <path id="Path_37478" d="M236.363 508.892l-2.053-1.952-5.032 5.287a2.081 2.081 0 1 1-3.006-2.861l5.032-5.288-2.045-1.947-5.3 5.573c-1.741 1.829-1.552 4.324.655 6.424s4.708 2.166 6.449.338z" class="cls-2" data-name="Path 37478"/>
            <path id="Path_37479" d="M230.654 519.153l2.487 1.34 1.941-2 3.181 1.713-.608 2.715 2.653 1.429 2.247-12.06-3.044-1.64zm9.163-5.459l-1.029 4.473-2.276-1.226 3.191-3.307z" class="cls-2" data-name="Path 37479"/>
            <path id="Path_37480" d="M251.047 515.159l-4.819-1.1-2.6 11.381 2.71.619.927-4.061 1.559.356 1 4.5 3.052.7-1.254-4.962a3.516 3.516 0 0 0 2.768-2.746c.49-2.146-.533-4.046-3.343-4.687zm.5 4.061a1.6 1.6 0 0 1-2.154 1.21l-1.676-.382.753-3.3 1.7.388a1.646 1.646 0 0 1 1.372 2.084z" class="cls-2" data-name="Path 37480"/>
            <path id="Path_37481" d="M259.224 516.021l-3.157 11.855 2.818-.145.623-2.713 3.605-.185.89 2.635 3.007-.155-4.335-11.469zm.7 6.929l1.011-4.481.128-.007 1.441 4.355z" class="cls-2" data-name="Path 37481"/>
            <path id="Path_37482" d="M273.375 513.229l2.237 6.546-.089.031-6.686-5.026-2.114.722 3.779 11.06 2.471-.844-2.259-6.612.1-.033 6.716 5.089 2.106-.72-3.779-11.06z" class="cls-2" data-name="Path 37482"/>
            <path id="Path_37483" d="M285.145 508.988l-1.283-1.924-7.647 5.1 1.283 1.924 2.644-1.763 5.2 7.8 2.352-1.568-5.2-7.8z" class="cls-2" data-name="Path 37483"/>
            <path id="Path_37484" d="M293 511.063l-1.9-1.775 3.227-3.463-1.515-1.412-3.227 3.462-1.848-1.722 3.444-3.694-1.64-1.528-5.352 5.741 8.547 7.968 5.353-5.742-1.641-1.528z" class="cls-2" data-name="Path 37484"/>
            <path id="Path_37485" d="M299.812 502.175l-2.262-1.282 2.332-4.115-1.8-1.02-2.331 4.115-2.2-1.243 2.488-4.391-1.949-1.1-3.866 6.824 10.158 5.755 3.866-6.824-1.949-1.1z" class="cls-2" data-name="Path 37485"/>
        </g>
        <g id="Group_1636" data-name="Group 1636">
            <circle id="Ellipse_445" cx="3" cy="3" r="3" class="cls-2" data-name="Ellipse 445" transform="translate(212.5 477)"/>
            <circle id="Ellipse_446" cx="3" cy="3" r="3" class="cls-2" data-name="Ellipse 446" transform="translate(299.5 477)"/>
        </g>
        <g id="Group_1637" data-name="Group 1637">
            <path id="Path_37486" d="M243.055 474.28h5.061v1.02q0 .261.036.77a6.257 6.257 0 0 0 .1.822 5.589 5.589 0 0 0 .211.72 1.874 1.874 0 0 0 .349.633 1.813 1.813 0 0 0 .531.393 1.6 1.6 0 0 0 .734.167 1.743 1.743 0 0 0 .728-.146 1.83 1.83 0 0 0 .523-.342 1.569 1.569 0 0 0 .349-.567 5.351 5.351 0 0 0 .211-.633 4.585 4.585 0 0 0 .1-.734q.036-.473.036-.684v-.661a4.069 4.069 0 0 0-.894-2.814 3.325 3.325 0 0 0-2.7-.953v-5.09a7.41 7.41 0 0 0 1.5-.08 3.308 3.308 0 0 0 1.112-.408 1.771 1.771 0 0 0 .742-.894 4.042 4.042 0 0 0 .24-1.5 6.474 6.474 0 0 0-.072-1.026 3.755 3.755 0 0 0-.262-.879 1.427 1.427 0 0 0-.6-.677 1.977 1.977 0 0 0-1.018-.239 1.583 1.583 0 0 0-.734.167 1.811 1.811 0 0 0-.531.392 1.878 1.878 0 0 0-.349.625 5.255 5.255 0 0 0-.211.721 6.472 6.472 0 0 0-.1.821c-.024.335-.036.589-.036.764v.989h-5.071V463.3a7.406 7.406 0 0 1 1.84-5.323 7.921 7.921 0 0 1 10.391.014 7.4 7.4 0 0 1 1.848 5.309 7.592 7.592 0 0 1-.677 3.148 5.157 5.157 0 0 1-1.97 2.321 5.823 5.823 0 0 1 2.014 2.682 10.014 10.014 0 0 1 .633 3.586 12.792 12.792 0 0 1-.386 3.273 7.92 7.92 0 0 1-1.192 2.588 5.215 5.215 0 0 1-2.189 1.746 8.051 8.051 0 0 1-3.273.61 8.931 8.931 0 0 1-2.821-.407 5.6 5.6 0 0 1-2-1.106 5.413 5.413 0 0 1-1.273-1.741 8.661 8.661 0 0 1-.7-2.211 17.18 17.18 0 0 1-.232-2.617z" class="cls-3" data-name="Path 37486"/>
            <path id="Path_37487" d="M259.933 475.065v-10.776a11.736 11.736 0 0 1 .414-3.207 8.117 8.117 0 0 1 1.244-2.6 5.6 5.6 0 0 1 2.2-1.774 8.248 8.248 0 0 1 6.371 0 5.565 5.565 0 0 1 2.2 1.782 8.2 8.2 0 0 1 1.243 2.6 11.623 11.623 0 0 1 .415 3.2v10.776a10.9 10.9 0 0 1-.437 3.135 8.142 8.142 0 0 1-1.287 2.6 5.965 5.965 0 0 1-2.218 1.8 7.036 7.036 0 0 1-3.1.661 7.211 7.211 0 0 1-3.134-.654 5.839 5.839 0 0 1-2.218-1.789 8.144 8.144 0 0 1-1.272-2.6 11.145 11.145 0 0 1-.421-3.154zm9.017 0v-10.776q0-3.768-1.964-3.768a1.513 1.513 0 0 0-.916.277 1.873 1.873 0 0 0-.574.654 3.512 3.512 0 0 0-.306.953 7.609 7.609 0 0 0-.13.967c-.015.262-.022.567-.022.917v10.776c0 .3.012.6.036.88a7.814 7.814 0 0 0 .153.975 3.805 3.805 0 0 0 .32.945 1.914 1.914 0 0 0 .574.677 1.405 1.405 0 0 0 .865.276 1.478 1.478 0 0 0 1.033-.385 2.2 2.2 0 0 0 .611-1.026 7.3 7.3 0 0 0 .255-1.192 9.9 9.9 0 0 0 .065-1.15z" class="cls-3" data-name="Path 37487"/>
            <path id="Path_37488" d="M244.183 498.7v-12.152h2.539a7.629 7.629 0 0 1 2 .219 2.509 2.509 0 0 1 1.236.722 2.781 2.781 0 0 1 .621 1.2 7.709 7.709 0 0 1 .172 1.79v3.984q0 .648-.04 1.132a6.332 6.332 0 0 1-.152.945 2.812 2.812 0 0 1-.3.783 2.679 2.679 0 0 1-.5.6 2.256 2.256 0 0 1-.733.438 4.88 4.88 0 0 1-1.006.25 8.848 8.848 0 0 1-1.327.088zm2.552-1.722c.235 0 .419 0 .554-.01a2.945 2.945 0 0 0 .4-.05.76.76 0 0 0 .3-.112.713.713 0 0 0 .175-.205.815.815 0 0 0 .1-.322 3.519 3.519 0 0 0 .024-.463v-6.543a.823.823 0 0 0-.358-.8 2.718 2.718 0 0 0-1.2-.2z" class="cls-3" data-name="Path 37488"/>
            <path id="Path_37489" d="M251.676 498.7l2.627-12.154h2.174L259.1 498.7h-2.424l-.5-2.6h-1.587l-.472 2.6zm3.079-4.112h1.256l-.615-4.511z" class="cls-3" data-name="Path 37489"/>
            <path id="Path_37490" d="M261.172 498.7v-4.017l-2.282-8.137h2.316l1.134 5.341q.21-.878.628-2.671t.621-2.67h2.249l-2.289 8.137v4.017z" class="cls-3" data-name="Path 37490"/>
            <path id="Path_37491" d="M266.589 495.225l2.492-.48q0 .372.013.655a5.17 5.17 0 0 0 .071.618 2.231 2.231 0 0 0 .155.547 1 1 0 0 0 .277.358.648.648 0 0 0 .423.145c.485 0 .729-.31.729-.932a3.5 3.5 0 0 0-1.438-2.539l-.764-.648a11.57 11.57 0 0 1-.58-.507 6.5 6.5 0 0 1-.51-.546 3.533 3.533 0 0 1-.459-.666 3.663 3.663 0 0 1-.284-.773 3.773 3.773 0 0 1-.118-.959 3.022 3.022 0 0 1 .938-2.34 3.548 3.548 0 0 1 2.492-.86 2.969 2.969 0 0 1 2.2.918 3.04 3.04 0 0 1 .9 2.215l-.006.088v.2l-2.539.351c0-.05 0-.127.01-.233s.01-.193.01-.26a3.053 3.053 0 0 0-.034-.466 2.414 2.414 0 0 0-.111-.445.779.779 0 0 0-.24-.355.6.6 0 0 0-.391-.131.671.671 0 0 0-.608.317 1.363 1.363 0 0 0-.2.749 2.105 2.105 0 0 0 .118.709 2.032 2.032 0 0 0 .358.618 5.142 5.142 0 0 0 .443.477c.134.126.315.28.54.462s.384.316.479.4a10.52 10.52 0 0 1 .878.86 6.968 6.968 0 0 1 .675.909 3.988 3.988 0 0 1 .476 1.094 4.85 4.85 0 0 1 .159 1.27 2.678 2.678 0 0 1-.911 2.09 3.212 3.212 0 0 1-2.215.813 3.457 3.457 0 0 1-1.5-.31 2.791 2.791 0 0 1-1.057-.845 4.1 4.1 0 0 1-.618-1.182 5.083 5.083 0 0 1-.253-1.386z" class="cls-3" data-name="Path 37491"/>
        </g>
    </g>
</svg>
