<svg viewBox="0 0 16 16" height="38" width="38" xmlns="http://www.w3.org/2000/svg"><g fill="none" fill-rule="evenodd"><path d="M1 1.332C1 .596 1.602 0 2.342 0h11.316C14.399 0 15 .59 15 1.332V4H1V1.332z" fill="#BDBDBD"/><path d="M.7 9.5h14.6l.292 5.169A1.248 1.248 0 0114.332 16H1.668c-.736 0-1.3-.6-1.259-1.331L.7 9.5z" fill="#4285F4"/><path d="M11.995 1.005l3 3L15.3 9.5l.3 5.167A1.258 1.258 0 0114.333 16h-7L.7 9.5l5.176-5.635-1.871-1.87.99-.99 3.66 3.661h5.021l-2.671-2.671.99-.99z" fill-opacity=".1" fill="#000"/><path d="M4.5.8a.7.7 0 110 1.4.7.7 0 010-1.4zm7 0a.7.7 0 110 1.4.7.7 0 010-1.4z" fill="#F5F5F5"/><path d="M1.337 3h13.326c.739 0 1.278.592 1.204 1.333L15.3 9.5H.7L.133 4.333A1.186 1.186 0 011.337 3z" fill="#386FE3"/><text font-family="Roboto-Regular, Roboto" font-size="10" fill="#F5F5F5"><tspan x="2.585" y="12.8">31</tspan></text><path d="M1.337 3h13.326c.739 0 1.278.592 1.204 1.333L15.3 9.5H.7L.133 4.333A1.186 1.186 0 011.337 3z" fill-opacity=".11" fill="#182D80"/></g></svg>