<svg viewBox="0 0 32 32" xmlns="http://www.w3.org/2000/svg"><g fill="none"><path d="M14.056 12.185l-9.82-3.339A1.838 1.838 0 004 9.748v11.865c0 .32.083.63.236.902l10.979-4.036-1.16-6.294z" fill="#BA68C8"/><path d="M16 2l4.55 16.326 6.554 3.81a.624.624 0 01.024 1.055h-.012l-10.22 5.933c-.283.154-.59.237-.896.237l-4.561-16.338-7.214-4.188c.163-.272.389-.5.659-.665l10.22-5.933c.283-.154.59-.237.896-.237z" fill="#7B1FA2"/><path d="M20.55 18.326A5.25 5.25 0 0116 20.972c-.778 0-1.52-.166-2.18-.474l8.958 5.208 4.338-2.515c.4-.237.4-.82 0-1.044l-6.566-3.82z" fill-opacity=".1" fill="#000"/><path d="M15.988 2.012c.307 0 .625.07.896.237l10.232 5.945c.4.225.377.806-.024 1.044l-6.554 3.808-4.537 6.098.011 10.205a1.72 1.72 0 01-.896-.237l-10.22-5.933a1.78 1.78 0 01-.66-.664l7.214-4.189 4.538-6.262V2.012z" fill="#4A148C"/><path d="M11.45 13.034a5.312 5.312 0 00-.707 2.646c0 2.92 2.345 5.292 5.257 5.292 2.9 0 5.257-2.36 5.257-5.292a5.31 5.31 0 00-.707-2.646h-9.1z" fill="#FAFAFA"/><path d="M16 10.389a5.25 5.25 0 00-4.55 2.645l3.583 2.077a1.961 1.961 0 001.945 0l3.572-2.077A5.25 5.25 0 0016 10.39z" fill="#E1BEE7"/></g></svg>