<svg viewBox="0 0 32 32" xmlns="http://www.w3.org/2000/svg"><g fill="none"><path d="M7.875 4h3.75L16 7.17 20.375 4h3.75C25.161 4 26 4.851 26 5.902v22.196c0 1.05-.84 1.902-1.875 1.902H7.875C6.839 30 6 29.149 6 28.098V5.902C6 4.852 6.84 4 7.875 4z" fill="#FBBC05"/><path d="M19 28H9a1 1 0 01-1-1V7a1 1 0 011-1h14a1 1 0 011 1v16l-3.333 1.667L19 28z" fill="#4285F4"/><path d="M19.714 23H24l-5 5v-4.286c0-.394.32-.714.714-.714z" fill="#1967D2"/><path d="M11 21v-1h10v1H11zm0 2v-1h5v1h-5zm0-4v-1h10v1H11zm1.84-5.401l.901-.9 1.8 1.8L20.04 10l.9.9-5.4 5.398-2.7-2.7z" fill="#FFF"/><path d="M16 2c2.893 0 6 1.567 6 3.5V8H10V5.5C10 3.567 13.107 2 16 2zm0 2a1 1 0 100 2 1 1 0 000-2z" fill="#174EA6"/></g></svg>