<svg viewBox="0 0 32 32" xmlns="http://www.w3.org/2000/svg"><g fill="none" fill-rule="evenodd"><rect fill="#F57C00" x="4" y="4" width="24" height="24" rx="7.6"/><path d="M11.996 8h4.008C18.211 8 20 9.8 20 12.002c0 1.104.888 1.998 2 1.998 1.105 0 2 .887 2 2v3.99A3.993 3.993 0 0120.004 24h-8.008A3.986 3.986 0 018 20.004v-8.008A4 4 0 0111.996 8zM12 19c0-.552.43-1 .981-1h6.038c.542 0 .981.464.981 1 0 .552-.43 1-.981 1h-6.038c-.542 0-.981-.464-.981-1zm0-6c0-.552.461-1 1.012-1h2.976c.559 0 1.012.464 1.012 1 0 .552-.461 1-1.012 1h-2.976A1.016 1.016 0 0112 13z" fill="#FFF"/></g></svg>