<svg viewBox="0 0 32 32" xmlns="http://www.w3.org/2000/svg"><g fill="none" fill-rule="evenodd"><path d="M16 30l-3-20h14.507c.826 0 1.493.669 1.493 1.493v17.014c0 .818-.669 1.493-1.493 1.493H16z" fill="#EA4335"/><path fill="#AD1457" d="M16 30V10h-3v20z"/><path d="M8 22l3.005-20h11.502C23.333 2 24 2.669 24 3.493v17.014c0 .818-.669 1.493-1.493 1.493H8z" fill="#FBBC05"/><path fill="#FF9800" d="M11 23V2H8v21z"/><path d="M5.5 26L4 16.5 5.5 6H13l1.5.75L16 6h1.507C18.333 6 19 6.669 19 7.493v17.014c0 .818-.669 1.493-1.493 1.493H5.5z" fill="#4285F4"/><path fill="#3367D6" d="M6 26V6H3v20z"/><path d="M13 6h3v6l-1.5-1-1.5 1V6zm0 15a2.25 2.25 0 0 0 2.122-1.5H13V18h3.526c.05.242.075.493.075.75 0 2.071-1.53 3.75-3.601 3.75a3.75 3.75 0 1 1 2.25-6.75l-1.079 1.079A2.25 2.25 0 1 0 13 21z" fill="#FFF"/></g></svg>