<svg viewBox="0 0 32 32" xmlns="http://www.w3.org/2000/svg"><path d="M5 6.005C5 4.898 5.89 4 6.991 4H25.01C26.109 4 27 4.894 27 6.005V9H5V6.005z" fill="#BDBDBD"/><path d="M5 18l11-6 11 6 .4 8c.055 1.105-.802 2-1.9 2h-19a1.88 1.88 0 01-1.9-2l.4-8z" fill="#4285F4"/><path d="M21.705 5.295L25.41 9 27 18l.4 8c.055 1.105-.802 2-1.9 2H15L5 18l8.06-8.53-2.765-2.765 1.41-1.41L15.94 9.53l6.786-.393-2.431-2.432 1.41-1.41z" fill-opacity=".1" fill="#000"/><path d="M21.707 6.705a.993.993 0 00-.002-1.41.996.996 0 00-1.412-.002.996.996 0 00.002 1.412.994.994 0 001.412 0zm-10 0a.993.993 0 00-.002-1.41.996.996 0 00-1.412-.002.996.996 0 00.002 1.412.994.994 0 001.412 0z" fill="#F5F5F5"/><path d="M6.005 8h19.99c1.107 0 1.916.887 1.805 2l-.8 8H5l-.8-8c-.11-1.105.697-2 1.805-2z" fill="#386FE3"/><path d="M11.49 17.508h.916c.576-.009 1.029-.16 1.358-.455.33-.294.495-.692.495-1.193 0-1.125-.56-1.688-1.681-1.688-.527 0-.948.151-1.262.452-.315.301-.472.7-.472 1.196h-1.22c0-.76.279-1.392.835-1.895.556-.503 1.262-.754 2.119-.754.905 0 1.615.239 2.129.718s.771 1.145.771 1.997c0 .418-.135.822-.405 1.213-.27.391-.638.684-1.104.877.527.167.935.444 1.223.83.287.387.431.86.431 1.418 0 .861-.281 1.544-.843 2.05-.563.505-1.295.758-2.196.758-.9 0-1.633-.244-2.198-.732s-.846-1.13-.846-1.93h1.226c0 .505.165.91.495 1.213.33.303.77.454 1.324.454.59 0 1.04-.153 1.352-.461.312-.308.468-.75.468-1.325 0-.558-.172-.986-.514-1.285-.343-.3-.838-.453-1.484-.462h-.916v-.995zm9.815 5.392H20.08v-8.128l-2.458.903v-1.107l3.493-1.312h.191V22.9z" fill="#F5F5F5"/><path d="M6.005 8h19.99c1.107 0 1.916.887 1.805 2l-.8 8H5l-.8-8c-.11-1.105.697-2 1.805-2z" fill-opacity=".11" fill="#182D80"/></svg>