<svg viewBox="0 0 32 32" xmlns="http://www.w3.org/2000/svg"><g fill="none" fill-rule="evenodd"><path d="M6.868 19.468a4.652 4.652 0 003.299 1.365 4.65 4.65 0 003.138-1.213l1.762 3.08a8.13 8.13 0 01-4.9 1.633 8.141 8.141 0 01-5.774-2.39c-.04-1.518.785-2.343 2.475-2.475zM21.833 8a8.14 8.14 0 015.775 2.392c.04 1.516-.786 2.341-2.475 2.475a4.667 4.667 0 10-6.6 6.6c-.133 1.689-.958 2.514-2.474 2.475A8.167 8.167 0 0121.834 8zM10.167 8a8.13 8.13 0 014.9 1.633l-1.76 3.081a4.65 4.65 0 00-3.14-1.214 4.652 4.652 0 00-3.3 1.367c-1.69-.134-2.514-.959-2.475-2.475A8.141 8.141 0 0110.167 8z" fill="#FDBA18"/><path d="M27.608 10.392a8.167 8.167 0 01-11.55 11.55l2.476-2.476a4.667 4.667 0 106.6-6.6l2.474-2.474zm-23.216 0l2.475 2.475a4.652 4.652 0 00-1.367 3.3c0 1.288.522 2.455 1.367 3.3L4.392 21.94A8.141 8.141 0 012 16.167c0-2.255.914-4.297 2.392-5.775z" fill="#EF9008"/></g></svg>