<svg viewBox="0 0 32 32" xmlns="http://www.w3.org/2000/svg"><g fill="none" fill-rule="evenodd"><path d="M24.908 9.788c0 1.535-1.221 2.782-2.727 2.782-1.505 0-2.727-1.247-2.727-2.782s1.222-2.781 2.727-2.781c1.506 0 2.727 1.246 2.727 2.781zm6.537.862c.658.633.74 1.673.19 2.405l-2.238 2.98-1.298 1.73a7.45 7.45 0 0 0-1.482 4.465c0 2.066-.947 4.033-2.598 5.224a13.558 13.558 0 0 1-4.014 1.99v-5.71c0-.04-.004-.08-.006-.12v-1.326c0-1.519.588-2.974 1.637-4.052l1.29-1.326 6.059-6.219a1.738 1.738 0 0 1 2.46-.04z" fill="#FBBC04"/><path d="M7.09 9.788c0-1.535 1.222-2.781 2.727-2.781 1.506 0 2.728 1.246 2.728 2.781 0 1.535-1.222 2.782-2.728 2.782-1.505 0-2.727-1.247-2.727-2.782zm3.273 8.446a5.814 5.814 0 0 1 1.636 4.052v7.158a13.588 13.588 0 0 1-4.02-1.99c-1.652-1.19-2.6-3.158-2.6-5.224 0-1.613-.52-3.182-1.482-4.463l-1.712-2.283-1.822-2.429a1.827 1.827 0 0 1 .193-2.405 1.738 1.738 0 0 1 2.46.041l.105.108 7.242 7.435z" fill="#4285F4"/><path d="M18.727 14.781c0 1.536-1.222 2.782-2.728 2.782-1.505 0-2.727-1.246-2.727-2.782 0-1.535 1.222-2.781 2.727-2.781 1.506 0 2.728 1.246 2.728 2.781zm-6.728 9.094c0-2.147 1.793-3.888 4.004-3.888 2.169 0 3.93 1.678 3.996 3.77v5.681a14.5 14.5 0 0 1-8 0v-5.563z" fill="#EA4335"/><path d="M18.727 4.781c0 1.536-1.222 2.782-2.728 2.782-1.505 0-2.727-1.246-2.727-2.782C13.272 3.246 14.494 2 15.999 2c1.506 0 2.728 1.246 2.728 2.781" fill="#34A853"/></g></svg>