<svg viewBox="0 0 32 32" xmlns="http://www.w3.org/2000/svg"><g fill="none"><path d="M10.067 10.955L7.75 16.051c.443 3.065-.307 4.715-2.249 4.95L3.25 15.946l3.747-8.255C7.613 6.327 8.76 5.51 10.065 5.51c1.305 0 2.452.817 3.068 2.182l7.334 16.325 3.664-8.051c.763-.388 1.526 1.29 2.288 5.03l-2.534 5.545C23.187 28.081 21.908 29 20.463 29c-1.444 0-2.724-.92-3.42-2.46l-6.976-15.585z" fill="#174EA6"/><path d="M23.9 5.454C23.206 3.918 21.936 3 20.498 3c-1.436 0-2.709.918-3.403 2.455l-7.028 15.597-2.282-5.074L5.504 21l1.494 3.315c.617 1.365 1.764 2.181 3.069 2.181s2.452-.816 3.068-2.181L20.5 7.973l5.92 13.046 2.313-5.072L23.9 5.454z" fill="#4285F4"/></g></svg>