<svg viewBox="0 0 32 32" xmlns="http://www.w3.org/2000/svg"><g fill="none"><path d="M29.92 2c.743 0 1.242.759.948 1.44L20.425 28.49A2.503 2.503 0 0 1 18.126 30h-7.135c-.742 0-1.258-.734-.964-1.415L20.45 3.511C20.845 2.594 21.582 2 22.58 2h7.34z" fill="#4285F4"/><path d="M17.848 9.772c.101 7.485-2.256 13.155-7.072 17.01-5.362-.077-9.715-4.412-9.775-9.802-.06-5.476 4.331-9.964 9.811-10.025a9.894 9.894 0 0 1 7.036 2.817z" fill="#FBBC04"/><path d="M17.848 9.77s-7.078 17.015-7.072 17.015c.085.002.171.002.256 0 5.48-.06 9.871-4.548 9.811-10.025a9.889 9.889 0 0 0-2.995-6.99z" fill="#EA4335"/></g></svg>