<svg viewBox="0 0 32 32" xmlns="http://www.w3.org/2000/svg"><g fill="none"><path d="M3.87 18.934c.51.303.875 1.122.875 2.084v3.979H2.12v-3.98c0-.961.365-1.78.874-2.083V13.2L2 13.003l2.8-.973L18 10v6L3.869 13.4l.002 5.534z" fill="#FABB05"/><path d="M23 15.024H9v6.38s2.625 3.094 7 3.094 7-3.095 7-3.095v-6.379z" fill="#2C66BF"/><path d="M14.532 13.004A1.534 1.534 0 0016 14.108a1.54 1.54 0 001.531-1.547A1.54 1.54 0 0016 11.014c-.661 0-1.224.423-1.439 1.016H4.8L16 8.14l14 4.863-14 4.863-14-4.863h12.532z" fill="#4285F4"/></g></svg>