<svg viewBox="0 0 32 32" xmlns="http://www.w3.org/2000/svg"><g fill="none" fill-rule="evenodd"><path d="M18.269 4l.38.002c.957 0 1.74.742 1.807 1.682l.004.13v4.52h-2.203V5.957l-2.323-.002-1.559-1.144L15.935 4h2.334z" fill="#212121"/><path d="M15.934 4v1.956h-2.16l-.002.002v4.373h-2.203V5.813c0-1 .81-1.81 1.81-1.81l.352-.001V4h2.203z" fill="#424242"/><path d="M3 16.188V9.561c0-.922.746-1.669 1.668-1.669h12.957v8.295H3z" fill="#4480F3"/><path d="M16.032 15.375v-7.48h11.262c.942 0 1.706.765 1.706 1.707v5.773H16.032z" fill="#296AD3"/><path d="M27.468 26.753H16.032l-1.625-12.17H29V25.22c0 .846-.686 1.533-1.532 1.533z" fill="#90CAF9"/><path d="M4.532 26.753h11.5v-12.17H3V25.22c0 .846.686 1.533 1.532 1.533z" fill="#BBDEFB"/><path fill="#FBC02D" d="M16.055 13.41h2.173v2.346h-2.173l-.867-1.194z"/><path fill="#FDD835" d="M16.055 13.41v2.346h-2.283v-2.345z"/></g></svg>