<svg viewBox="0 0 32 32" xmlns="http://www.w3.org/2000/svg"><g fill="none"><path d="M27.374 16c0-1.391 1.164-2.5 2.626-2.5V7.87C30 6.826 29.11 6 28.036 6H3.964C2.868 6 2 6.848 2 7.87v5.63c1.462 0 2.626 1.109 2.626 2.5S3.462 18.5 2 18.5v5.63C2 25.174 2.89 26 3.964 26h24.072C29.132 26 30 25.152 30 24.13V18.5c-1.439 0-2.626-1.109-2.626-2.5z" fill="#34A853"/><path d="M30 23.985v-1.047l-8.97-8.878-1.524-.136-3.552-3.552-1.32 3.574-3.779.114 2.937 2.937-.979 3.073L18.709 26h9.265c1.07-.023 2.026-.945 2.026-2.015z" fill-opacity=".1" fill="#000"/><path fill="#FBBC05" d="M15.954 18.158l3.142 1.89-.82-3.575 2.778-2.413-3.665-.296-1.435-3.392-1.434 3.392-3.665.296 2.778 2.413-.82 3.574z"/></g></svg>