<svg viewBox="0 0 32 32" xmlns="http://www.w3.org/2000/svg"><g fill="none"><path d="M18.424 21.572L11.19 31h3.763a2.05 2.05 0 0 0 1.623-.8l6.62-8.626h-4.772v-.002zM2.93 24.182c-.636 0-1.234.295-1.62.8l-.31.401 2.037.453 1.191 1.554 2.469-3.21H2.93z" fill="#E0E0E0"/><path d="M16 1a2.04 2.04 0 0 0-1.382.537L3.558 11.67a2.046 2.046 0 0 0-.24 2.753H28.68a2.045 2.045 0 0 0-.24-2.753L17.38 1.537A2.038 2.038 0 0 0 16 1z" fill="#4285F4"/><path d="M24.856 19.41l-7.233 9.425a2.045 2.045 0 0 1-3.246 0L7.144 19.41h17.712z" fill="#FBBC05"/><path d="M16 20.09l-7.808.684-4.874-6.35a2.04 2.04 0 0 1-.419-1.369L16 11.91l13.1 1.146c.03.477-.107.964-.418 1.368l-4.874 6.351L16 20.091z" fill="#34A853"/><path d="M14.953 31a2.05 2.05 0 0 1-1.622-.8l-4.004-5.217a2.044 2.044 0 0 0-1.623-.8H2.931a2.05 2.05 0 0 1 1.623.8l4.004 5.218c.387.504.987.799 1.623.799h4.772z" fill="#F5F5F5"/><path d="M16 29.636V1c.495 0 .99.179 1.38.537L28.44 11.67a2.043 2.043 0 0 1 .66 1.385c.03.477-.107.964-.418 1.368l-11.06 14.412c-.408.534-1.015.8-1.622.8z" fill-opacity=".15" fill="#FFF"/></g></svg>