<svg viewBox="0 0 32 32" xmlns="http://www.w3.org/2000/svg"><g fill="none"><path d="M28.819 5H3.247C2.569 5 2 5.545 2 6.194v19.549C2 26.393 2.569 27 3.247 27h7.722v-.901c0-.398.24-.712.656-.712.416 0 .656.314.656.712V27h7.438v-.901c0-.398.35-.712.765-.712.416 0 .766.314.766.712V27h7.569c.678 0 1.181-.587 1.181-1.257V6.194C30 5.544 29.497 5 28.819 5z" fill="#34A853"/><path d="M16.044 14.177c-1.365 0-2.472-1.06-2.472-2.367 0-1.308 1.107-2.368 2.472-2.368s2.472 1.06 2.472 2.368c0 1.307-1.107 2.367-2.472 2.367zm1.334.733c5.14.273 6.06 2.033 6.694 5.909v.042c0 .189-.11.377-.328.398h-1.969c-.262 0-.416-.314-.438-.419-.328-1.781-.875-1.949-1.487-1.97h-.066v2.41h-7.35v-1.907c-.021-.9-.415-1.278-.918-1.613-.547-.377-1.182-.775-1.772-1.32-2.385-2.577-2.253-5.762-.766-6.013.656-.105.94.083 1.181.314.175.189.307.44.329.733.24 2.18 1.443 2.934 2.34 3.164.81.21 2.778.189 4.55.272z" fill="#FFF"/></g></svg>