<svg viewBox="0 0 32 32" xmlns="http://www.w3.org/2000/svg"><path d="M26.015 6.222a.047.047 0 00-.009-.007l-.013-.013c-.191-.192-.35-.296-.404-.253-.037.028-.024.115.028.239l.024.055c.87 2.123.407 5.435-1.394 9.862-1.429 3.514-3.217 6.475-3.235 6.506a.304.304 0 01-.517.002c-.017-.03-1.84-2.997-3.306-6.517-1.995-4.785-2.415-8.268-1.254-10.351.808-1.447 2.364-2.18 4.625-2.18h.194a8.89 8.89 0 011.091.064h.015c.168.025.313.022.333-.028.035-.088-.241-.277-.64-.455A13.93 13.93 0 0016 2C8.27 2 2.001 8.268 2.001 16s6.268 14 14 14 14-6.268 14-14a13.948 13.948 0 00-3.985-9.778zm-3.3 18.86a.153.153 0 01-.153.154h-3.675a.153.153 0 01-.152-.153v-.66c0-.084.068-.152.152-.152h3.675c.085 0 .153.068.153.153v.659z" fill="#424242"/></svg>