<svg viewBox="0 0 32 32" xmlns="http://www.w3.org/2000/svg"><g fill="none" fill-rule="evenodd"><path d="M24.866 7.37c-1.628 5.492-3.614 7.849-5.957 7.07-.013.017 0 0 .04-.047a3.797 3.797 0 00-5.856-4.836c-2.007-1.768-.02-4.128 5.964-7.081a10.03 10.03 0 015.809 4.893z" fill="#4285F4"/><path d="M13.091 9.559a3.797 3.797 0 105.818 4.882c2.196 1.896-.265 4.817-7.38 8.762-1.62-2.058-3.4-4.045-4.492-6.457 2.2-6.244 4.217-8.64 6.054-7.187z" fill="#FBBC05"/><path d="M8.34 5.572c2.554-.947 4.138.382 4.75 3.987l-6.052 7.187A11.298 11.298 0 016 12c0-2.448.88-4.69 2.34-6.428z" fill="#EA4335"/><path d="M26 12c0 7.69-7.405 10.918-8.924 17.437-.095.506-.541 1.16-1.056 1.17h-.04c-.515-.01-.961-.664-1.056-1.17-.558-2.394-1.909-4.344-3.396-6.234L24.866 7.37A9.957 9.957 0 0126 12z" fill="#34A853"/><path d="M16 2c1.066 0 2.094.167 3.057.476l-5.966 7.083-4.752-3.987A9.979 9.979 0 0116 2z" fill="#1A73E8"/></g></svg>