<svg viewBox="0 0 32 32" xmlns="http://www.w3.org/2000/svg"><g fill="none"><path d="M17.536 23.51l4.226-4.226 1.532 1.532-4.231 4.232a3.422 3.422 0 01-.646 3.935c-.65.65-1.5 1-2.417 1-.916 0-1.766-.35-2.416-1a3.416 3.416 0 01-.884-3.3 3.38 3.38 0 01.884-1.534c.65-.65 1.5-1 2.416-1 .545 0 1.067.124 1.536.36zm-2.419 2.173c-.15.15-.267.35-.317.566-.116.434.017.9.317 1.217.467.467 1.3.467 1.767 0A1.249 1.249 0 0016 25.333c-.334 0-.65.1-.884.35z" fill="#34A853"/><path d="M25.051 12.927a3.422 3.422 0 013.949.64 3.42 3.42 0 010 4.833 3.421 3.421 0 01-4.833 0 3.416 3.416 0 01-.883-3.3c.056-.221.137-.435.238-.638l-4.218-4.218 1.532-1.532 4.215 4.215zm.65 2.173c-.15.15-.268.35-.318.566-.116.434.017.9.317 1.217a1.257 1.257 0 001.767 0 1.257 1.257 0 000-1.767 1.236 1.236 0 00-.884-.366 1.13 1.13 0 00-.883.35z" fill="#4285F4"/><path d="M12.938 6.933a3.408 3.408 0 01-.238-2.4A3.38 3.38 0 0113.584 3c.65-.65 1.5-1 2.416-1 .917 0 1.767.35 2.417 1 .65.65 1 1.5 1 2.417 0 .916-.35 1.766-1 2.416a3.421 3.421 0 01-3.951.637l-4.21 4.209-1.531-1.532 4.213-4.214zm2.18-2.416c-.15.15-.268.35-.318.566-.116.434.017.9.317 1.217A1.249 1.249 0 1016 4.167c-.333 0-.65.116-.883.35z" fill="#EA4335"/><path d="M8.47 17.52l4.229 4.228-1.532 1.532-4.235-4.234a3.421 3.421 0 01-3.931-.646 3.416 3.416 0 01-.884-3.3 3.38 3.38 0 01.884-1.534 3.42 3.42 0 014.833 0 3.422 3.422 0 01.636 3.954zM4.55 15.1c-.15.15-.266.35-.316.566-.117.434.017.9.317 1.217a1.257 1.257 0 001.766 0 1.257 1.257 0 000-1.767 1.236 1.236 0 00-.883-.366 1.11 1.11 0 00-.883.35z" fill="#FBBC05"/></g></svg>