<svg viewBox="0 0 32 32" xmlns="http://www.w3.org/2000/svg"><g fill="none" fill-rule="evenodd"><path d="M18.184 2.911l3.533 3.533 1.9 1.9-.224 5.176-4.725-.225-2.7-2.7-2.7 2.7-5.625.675.675-5.625 2.814-2.814 2.62-2.62.102-.097a3.15 3.15 0 014.33.097z" fill="#01E675"/><path d="M7.643 17.57l5.625 1.124 2.7 2.7 2.7-2.7 4.725.225.225 4.725-5.766 5.766a3.15 3.15 0 01-4.072-.305l-5.462-5.46-.675-6.076z" fill="#FF3A44"/><path d="M23.618 8.345l4.95 4.95.498.499a3.15 3.15 0 01.316 4.086l-5.764 5.764-4.95-4.95 2.7-2.7-2.7-2.7 4.95-4.95z" fill="#FFCA28"/><path d="M8.345 8.372l4.923 4.923-2.7 2.7 2.7 2.7-4.95 4.95-5.395-5.397a3.15 3.15 0 010-4.454l5.422-5.422z" fill="#3FC4FF"/></g></svg>