<svg viewBox="0 0 32 32" xmlns="http://www.w3.org/2000/svg"><g fill="none"><path d="M27.882 11.697l2.067 12.21c0 .154.051.307.051.46 0 1.535-1.227 2.76-2.71 2.76-.768 0-1.432-.307-1.945-.767l-4.88-4.916h-9.36l1.734-1.734 15.043-8.013z" fill="#00B359"/><path d="M10.797 6C7.473 6 4.71 8.097 3.995 12.393A3940.323 3940.323 0 012.051 23.9c0 .154-.051.308-.051.46 0 1.535 1.227 2.761 2.71 2.761.768 0 1.432-.308 1.945-.767l6.546-6.65h8.03c3.682 0 6.751-3.069 6.751-6.802C27.984 9.069 24.915 6 21.231 6H10.797z" fill="#00E26B"/><path d="M21.13 14.285a1.074 1.074 0 110 2.147 1.074 1.074 0 010-2.147zm-9.565-4.45v2.353h2.353v1.688h-2.353v2.353H9.877v-2.353H7.524v-1.688h2.353V9.835h1.688zm11.916 2.149a1.074 1.074 0 110 2.147 1.074 1.074 0 010-2.147zm-4.704 0a1.074 1.074 0 110 2.147 1.074 1.074 0 010-2.147zm2.352-2.352a1.074 1.074 0 110 2.147 1.074 1.074 0 010-2.147z" fill="#FAFAFA"/></g></svg>