<svg viewBox="0 0 32 32" xmlns="http://www.w3.org/2000/svg"><g fill="none" fill-rule="evenodd"><path fill="#FFCA28" d="M16.688 19L27 10.75v16.5z"/><path d="M18.75 17.625v2.75L7.75 30h-.688A2.062 2.062 0 015 27.937v-6.765a1.031 1.031 0 011.852-.623l.022.03a2.75 2.75 0 10-.001-3.158A1.031 1.031 0 015 16.828v-6.765C5 8.924 5.923 8 7.063 8h.687l11 9.625z" fill="#3FC4FF"/><path d="M27 10.063v.687L18.75 19l-11-11h6.078a1.03 1.03 0 001.026-.932l.005-.1c0-.347-.173-.655-.437-.84a2.75 2.75 0 113.158-.001l-.031.02A1.031 1.031 0 0018.173 8l6.765.001A2.061 2.061 0 0127 10.063z" fill="#01E675"/><path d="M7.75 30h17.531c.95 0 1.719-.77 1.719-1.719V27.25L18.75 19l-11 11z" fill="#FF3A44"/></g></svg>