<svg viewBox="0 0 32 32" xmlns="http://www.w3.org/2000/svg"><g fill="none" fill-rule="evenodd"><circle fill="#EDC5C3" cx="16" cy="16" r="14"/><path d="M16 6a1 1 0 011 1v6.585l4.657-4.656a1 1 0 011.414 1.414L18.414 15H25a1 1 0 010 2h-6.585l4.656 4.657a1 1 0 01-1.414 1.414L17 18.415V25a1 1 0 01-2 0v-6.585l-4.657 4.656a1 1 0 01-1.414-1.414L13.584 17H7a1 1 0 010-2h6.585l-4.656-4.657a1 1 0 011.414-1.414L15 13.585V7a1 1 0 011-1z" fill="#EA4335"/><circle fill="#972722" cx="16" cy="16" r="8"/><path d="M16 20a1 1 0 110 2 1 1 0 010-2zm-3-2a1 1 0 110 2 1 1 0 010-2zm6 0a1 1 0 110 2 1 1 0 010-2zm-3-3a1 1 0 110 2 1 1 0 010-2zm5 0a1 1 0 110 2 1 1 0 010-2zm-10 0a1 1 0 110 2 1 1 0 010-2zm2-3a1 1 0 110 2 1 1 0 010-2zm6 0a1 1 0 110 2 1 1 0 010-2zm-3-2a1 1 0 110 2 1 1 0 010-2z" fill="#EA4335"/></g></svg>