<svg viewBox="0 0 32 32" xmlns="http://www.w3.org/2000/svg"><g fill="none" fill-rule="evenodd"><path fill="#000" fill-rule="nonzero" d="M22 16.5h-6v6h6z"/><path d="M7 6C5.35 6 4 7.35 4 9v17c0 1.65 1.35 3 3 3h18c1.65 0 3-1.35 3-3V9c0-1.65-1.35-3-3-3H7z" fill="#4285F4" fill-rule="nonzero"/><path fill="#FFF" fill-rule="nonzero" d="M25 26H7V13h18z"/><path d="M10.5 3A1.5 1.5 0 0112 4.5v3a1.5 1.5 0 01-3 0v-3A1.5 1.5 0 0110.5 3zm11 0A1.5 1.5 0 0123 4.5v3a1.5 1.5 0 01-3 0v-3A1.5 1.5 0 0121.5 3z" fill="#FBBC05"/><path d="M20 21c-1.657 0-3 .895-3 2s1.343 2 3 2 3-.895 3-2-1.343-2-3-2z" fill="#34A853" fill-rule="nonzero"/><path d="M20 11.57c2.211 0 4 1.789 4 4 0 3-4 7.429-4 7.429s-4-4.429-4-7.429c0-2.211 1.789-4 4-4zm0 2.571A1.43 1.43 0 1020.001 17 1.43 1.43 0 0020 14.14z" fill="#EA4335" fill-rule="nonzero"/></g></svg>