<svg viewBox="0 0 32 32" xmlns="http://www.w3.org/2000/svg"><g fill="none"><path d="M26.667 6.667C27.403 6.667 28 7.264 28 8v4c0 3.652-2.857 5.333-5.196 5.333H20l2.804-2C23.909 15.333 26 14.637 26 12V8.667H6V12c0 2.637 2.09 3.333 3.196 3.333l2.804 2H9.196C6.857 17.333 4 15.652 4 12V8c0-.736.597-1.333 1.333-1.333h21.334z" fill="#34A853"/><path fill="#F9AB00" d="M16 4l2.667 1.333v17.334L16 23.333l-2.667-.666V9.333L8 6V4z"/><path d="M22.667 28H9.333v-2.667c0-.736.598-1.333 1.334-1.333h10.628c.757 0 1.372.597 1.372 1.333V28z" fill="#4285F4"/><path fill="#F29900" d="M16 6.667L24 6V4h-8z"/><path fill="#EA4335" d="M13.333 24h5.334v-1.333h-5.334z"/><path d="M8 6v6.785c0 4.356 3.395 7.99 7.69 8.1a11.726 11.726 0 00.618 0c4.297-.11 7.692-3.744 7.692-8.1V6H8z" fill="#FBBC04"/><path fill="#FFF" d="M20.454 11.193l-3.202-.269L16 7.995l-1.253 2.93-3.202.268 2.432 2.09-.73 3.107L16 14.742l2.751 1.648-.73-3.106z"/></g></svg>