<svg viewBox="0 0 32 32" xmlns="http://www.w3.org/2000/svg"><defs><linearGradient x1="38.095%" y1="28.203%" x2="67.913%" y2="60.081%" id="a"><stop stop-color="#FF4C1D" offset="10%"/><stop stop-color="#FC4A1F" offset="31.55%"/><stop stop-color="#F24226" offset="48.85%"/><stop stop-color="#E13532" offset="64.68%"/><stop stop-color="#C92343" offset="79.64%"/><stop stop-color="#AB0C58" offset="93.84%"/><stop stop-color="#9B0063" offset="100%"/></linearGradient></defs><path d="M29.063 9.852C26.912 8.632 15.698 3.11 2.892 12.29a.534.534 0 00-.179.652l2.552 5.795a.535.535 0 00.67.288c1.672-.597 7.458-2.487 11.203-1.467 0 0-3.756.219-7.153 2.887a.533.533 0 00-.157.635l1.144 2.59.44 1.033c.105.245.44.275.586.054.794-1.197 2.129-1.794 3.414-2.315a19.576 19.576 0 014.086-1.17 17.725 17.725 0 014.524-.187.536.536 0 00.56-.373l1.153-3.692a.535.535 0 00-.195-.592c-1.285-.933-6.378-4.068-15.335-2.808 0 0 7.643-4.4 17.345.433a.534.534 0 00.747-.32l1.016-3.256a.545.545 0 00-.25-.625z" fill="url(#a)" fill-rule="nonzero"/></svg>