<svg viewBox="0 0 32 32" xmlns="http://www.w3.org/2000/svg"><g fill="none"><path d="M16 2.5c.31 0 .622.08.9.24l10.2 5.855c.557.32.9.91.9 1.55v11.71c0 .325-.089.637-.249.908L12.098 25.81 16 2.5z" fill="#80DEEA"/><path d="M16 19.81L4.247 22.758A1.786 1.786 0 014 21.86V10.146c.002-.64.345-1.231.9-1.549l3.067-1.76.003-.002L15.1 2.74a1.81 1.81 0 01.9-.24v17.31z" fill="#7E57C2"/><path d="M4.247 22.758c.158.268.383.49.653.645h.004L15.1 29.26a1.808 1.808 0 001.8 0l3.665-2.104L16 16 4.247 22.758z" fill="#FFCA28"/><path d="M23.848 20.512l3.906 2.246a1.793 1.793 0 01-.654.647l-3 1.722a2.119 2.119 0 01-.07.038l-3.468 1.992L16 24.7l2.97-5.53 4.878 1.342z" fill="#DC9856"/><path fill="#CACACA" d="M16 9.7l7.8 10.8-7.8 4.2-2.7-6.97z"/><path fill="#FBFBFB" d="M16 9.7v15l-7.8-4.2z"/><path d="M9.125 14.011c1.036-.393 1.862-1.66 1.844-2.829-.018-1.169-.872-1.797-1.908-1.404-1.037.393-1.862 1.66-1.845 2.829.018 1.169.873 1.797 1.909 1.404z" fill="#FFF"/></g></svg>