<svg viewBox="0 0 32 32" xmlns="http://www.w3.org/2000/svg"><g fill="none"><circle fill="#00E89D" cx="16" cy="16" r="14"/><path d="M9.885 18.875l4.448-7.648 3.331 1.898-4.448 7.646-3.331-1.896zm8.896 0l4.448-7.648 3.331 1.897-4.446 7.647-3.333-1.896z" fill="#0078FF"/><path d="M26.818 12.175c0 1.05-.86 1.903-1.922 1.903a1.913 1.913 0 0 1-1.921-1.903c0-1.05.86-1.902 1.921-1.902s1.922.852 1.922 1.902zM11.55 21.727a1.93 1.93 0 0 1-1.669-.954l-4.443-7.646a1.894 1.894 0 0 1 .708-2.598 1.934 1.934 0 0 1 2.625.7l4.448 7.646c.528.91.212 2.074-.708 2.598a1.936 1.936 0 0 1-.96.254zm8.897 0a1.933 1.933 0 0 1-1.67-.954l-4.443-7.646a1.894 1.894 0 0 1 .708-2.598 1.934 1.934 0 0 1 2.625.7l4.448 7.646c.529.91.212 2.074-.707 2.598a1.936 1.936 0 0 1-.961.254z" fill="#FFF"/></g></svg>