<svg viewBox="0 0 32 32" xmlns="http://www.w3.org/2000/svg"><g fill="none" fill-rule="nonzero"><path d="M14.928 2.717c.589-.342 1.554-.342 2.144 0l9.856 5.71C27.517 8.766 28 9.614 28 10.31v11.375c0 .696-.483 1.543-1.072 1.885l-9.856 5.709c-.589.342-1.554.342-2.144 0l-9.856-5.71C4.483 23.23 4 22.383 4 21.687V10.311c0-.696.483-1.543 1.072-1.885l9.856-5.71z" fill="#F5221B"/><path d="M16.915 24.833c-.26.15-.587.225-.91.225-.327 0-.653-.075-.912-.225l-6.269-3.629c-.52-.3-.824-.98-.824-1.582v-7.258c0-.602.304-1.283.824-1.582l6.269-3.616c.52-.301 1.302-.301 1.822 0l6.267 3.616c.52.3.818.98.818 1.582v7.258c0 .601-.298 1.281-.818 1.582l-6.267 3.629zm-.517-16.706a.804.804 0 00-.399-.087c-.15 0-.297.03-.398.087l-6.086 3.53c-.2.117-.49.388-.515.838v7.06c0 .371.314.675.515.792l6.086 3.53c.2.116.596.116.797 0l6.085-3.53c.203-.116.517-.335.517-.793v-7.06c0-.45-.316-.72-.517-.837l-6.085-3.53zM13.5 19.998v-8l7 4-7 4z" fill="#FFF"/></g></svg>