<svg viewBox="0 0 32 32" xmlns="http://www.w3.org/2000/svg"><g fill="none" fill-rule="nonzero"><path d="M30 15.596c0 .093-.004.184-.007.278.001.076.005.152.005.228a9.641 9.641 0 01-1.702 5.487 9.01 9.01 0 01-3.184 2.93 9.613 9.613 0 01-4.791 1.272c-.078 0-.156-.004-.234-.006-.091.002-.18.006-.27.006-2.313 0-5.004-1.507-6.54-2.438-1.605-.928-5.868-3.472-8.494-5.242l-2.229-1.478c-.094-.07-.356-.223-.402-.267a.553.553 0 01-.152-.38c0-.19.067-.312.191-.394.096-.063.228-.144.31-.189L15.9 7.533v.004c1.326-.712 2.828-1.313 4.42-1.313l.288.002C24.782 6.124 30 9.965 30 15.596zm-14.356-9.05l-.319.185-8.65 5.062c-.774-.436-2.561-1.49-2.633-1.537-.343-.197-.405-.336-.405-.58 0-.277.29-.372.47-.45l.415-.127L16.675 5.95l-1.031.595z" fill="#F5221B"/><path fill="#FFF" d="M17 20l7-4-7-4z"/></g></svg>