<svg viewBox="0 0 48 48" xmlns="http://www.w3.org/2000/svg"><path d="M34.787 18.7l3.667-6.345a.764.764 0 00-.276-1.042.764.764 0 00-1.042.276l-3.709 6.42c-2.838-1.297-6.026-2.02-9.416-2.02-3.401 0-6.58.723-9.417 2.02l-3.709-6.42a.764.764 0 00-1.042-.276.764.764 0 00-.276 1.042l3.667 6.345C6.92 22.122 2.627 28.488 2 36.002h44c-.627-7.514-4.931-13.88-11.213-17.302zM13.871 29.732a1.828 1.828 0 110-3.656 1.828 1.828 0 010 3.656zm20.258 0a1.828 1.828 0 110-3.656 1.828 1.828 0 010 3.656z" fill="#3DDC84"/></svg>