<svg viewBox="0 0 48 48" xmlns="http://www.w3.org/2000/svg"><g fill="none"><path d="M20.921 18.126L5.373 12.84A2.91 2.91 0 005 14.268v18.786c0 .508.131.997.373 1.428l17.384-6.39-1.836-9.966z" fill="#BA68C8"/><path d="M24 2l7.204 25.85 10.378 6.03c.616.358.653 1.278.037 1.673H41.6l-16.18 9.393a2.965 2.965 0 01-1.419.376l-7.222-25.87-11.422-6.63A3.12 3.12 0 016.4 11.769l16.183-9.393A2.964 2.964 0 0124 2z" fill="#7B1FA2"/><path d="M31.204 27.85c-1.437 2.499-4.124 4.19-7.204 4.19a8.149 8.149 0 01-3.452-.752l14.184 8.247 6.868-3.983c.635-.375.635-1.296 0-1.653l-10.396-6.05z" fill-opacity=".1" fill="#000"/><path d="M23.981 2.019c.486 0 .99.112 1.42.375l16.2 9.413H41.6c.634.356.597 1.277-.038 1.653l-10.376 6.03L24 29.144l.018 16.159c-.485 0-.99-.113-1.419-.376L6.42 35.534a2.817 2.817 0 01-1.046-1.052l11.423-6.632 7.185-9.915V2.019z" fill="#4A148C"/><path d="M16.796 19.471a8.41 8.41 0 00-1.12 4.19c0 4.621 3.714 8.379 8.324 8.379 4.592 0 8.324-3.74 8.324-8.38 0-1.47-.386-2.914-1.12-4.189H16.796z" fill="#FAFAFA"/><path d="M24 15.282c-3.08 0-5.767 1.69-7.204 4.19l5.674 3.287a3.105 3.105 0 003.08 0l5.654-3.288c-1.437-2.498-4.124-4.19-7.204-4.19z" fill="#E1BEE7"/></g></svg>