<svg viewBox="0 0 48 48" xmlns="http://www.w3.org/2000/svg"><g fill="none"><path d="M11 5h6l7 5 7-5h6a3 3 0 013 3v35a3 3 0 01-3 3H11a3 3 0 01-3-3V8a3 3 0 013-3z" fill="#FBBC05"/><path d="M29 42H13a1 1 0 01-1-1V10a1 1 0 011-1h22a1 1 0 011 1v25l-5 2-2 5z" fill="#4285F4"/><path d="M30 35h6l-7 7v-6a1 1 0 011-1z" fill="#1967D2"/><path d="M16 32v-2h16v2H16zm0 4v-2h8v2h-8zm0-8v-2h16v2H16zm2.75-8.265l1.415-1.415 2.828 2.83 7.07-7.07 1.415 1.415-8.486 8.482-4.242-4.242z" fill="#FFF"/><path d="M24 2c4.34 0 9 2.35 9 5.25V11H15V7.25C15 4.35 19.66 2 24 2zm0 3a1.5 1.5 0 100 3 1.5 1.5 0 000-3z" fill="#174EA6"/></g></svg>