<svg viewBox="0 0 48 48" xmlns="http://www.w3.org/2000/svg"><g fill="none" fill-rule="evenodd"><rect fill="#F57C00" x="5" y="5" width="38" height="38" rx="12"/><path d="M34.5 21h-1c-.83 0-1.5-.67-1.5-1.5 0-4.14-3.36-7.5-7.5-7.5h-5c-4.14 0-7.5 3.36-7.5 7.5v9c0 4.14 3.36 7.5 7.5 7.5h9c4.14 0 7.5-3.36 7.5-7.5v-6c0-.83-.67-1.5-1.5-1.5zm-15-3h6c.83 0 1.5.67 1.5 1.5s-.67 1.5-1.5 1.5h-6c-.83 0-1.5-.67-1.5-1.5s.67-1.5 1.5-1.5zm9 12h-9c-.83 0-1.5-.67-1.5-1.5s.67-1.5 1.5-1.5h9c.83 0 1.5.67 1.5 1.5s-.67 1.5-1.5 1.5z" fill="#FFF"/></g></svg>