<svg viewBox="0 0 48 48" xmlns="http://www.w3.org/2000/svg"><g fill="none" fill-rule="evenodd"><path d="M9.65 29.02a7.31 7.31 0 005.183 2.147c1.9 0 3.63-.722 4.933-1.907l2.768 4.84a12.777 12.777 0 01-7.7 2.567 12.793 12.793 0 01-9.073-3.757c-.063-2.385 1.233-3.68 3.889-3.89zM33.167 11c3.544 0 6.752 1.437 9.074 3.759.062 2.383-1.235 3.68-3.889 3.89a7.333 7.333 0 10-10.37 10.37c-.21 2.654-1.507 3.95-3.89 3.89a12.793 12.793 0 01-3.759-9.076C20.333 16.746 26.08 11 33.167 11zm-18.334 0c2.89 0 5.556.955 7.7 2.566l-2.766 4.842a7.307 7.307 0 00-4.934-1.908 7.31 7.31 0 00-5.185 2.148c-2.654-.21-3.95-1.506-3.89-3.89A12.793 12.793 0 0114.834 11z" fill="#FDBA18"/><path d="M42.241 14.759A12.793 12.793 0 0146 23.833c0 7.088-5.746 12.834-12.833 12.834a12.793 12.793 0 01-9.075-3.759l3.89-3.89a7.333 7.333 0 0010.37-10.37l3.89-3.889zm-36.482 0l3.889 3.889A7.31 7.31 0 007.5 23.833a7.31 7.31 0 002.148 5.186l-3.89 3.889A12.793 12.793 0 012 23.833a12.79 12.79 0 013.759-9.074z" fill="#EF9008"/></g></svg>