<svg viewBox="0 0 48 48" xmlns="http://www.w3.org/2000/svg"><g fill="none" fill-rule="evenodd"><path d="M36.249 15.7c0 2.11-1.68 3.824-3.75 3.824-2.07 0-3.75-1.713-3.75-3.824 0-2.112 1.68-3.825 3.75-3.825 2.07 0 3.75 1.713 3.75 3.825zm8.987 1.194c.905.87 1.018 2.3.263 3.307l-3.078 4.097-1.785 2.38a10.244 10.244 0 0 0-2.037 6.139c0 2.84-1.303 5.545-3.573 7.182a18.642 18.642 0 0 1-5.52 2.736v-7.85c0-.057-.005-.11-.007-.166v-1.823a7.98 7.98 0 0 1 2.25-5.571l1.775-1.823 8.33-8.552a2.39 2.39 0 0 1 3.382-.056z" fill="#FBBC04"/><path d="M11.749 15.7c0-2.112 1.68-3.825 3.75-3.825 2.07 0 3.75 1.713 3.75 3.825 0 2.11-1.68 3.824-3.75 3.824-2.07 0-3.75-1.713-3.75-3.824zm4.5 11.622a7.994 7.994 0 0 1 2.25 5.571v9.842a18.683 18.683 0 0 1-5.528-2.736c-2.272-1.637-3.575-4.342-3.575-7.182 0-2.219-.715-4.376-2.037-6.137l-2.355-3.14-2.505-3.34a2.512 2.512 0 0 1 .265-3.307 2.39 2.39 0 0 1 3.382.056l.145.148 9.958 10.224z" fill="#4285F4"/><path d="M27.749 22.575c0 2.11-1.68 3.824-3.75 3.824-2.07 0-3.75-1.713-3.75-3.824 0-2.112 1.68-3.825 3.75-3.825 2.07 0 3.75 1.713 3.75 3.825zm-9.25 12.503c0-2.952 2.465-5.346 5.505-5.346 2.982 0 5.405 2.307 5.495 5.183v7.812a19.842 19.842 0 0 1-5.5.775c-1.86 0-3.71-.26-5.5-.775v-7.649z" fill="#EA4335"/><path d="M27.749 8.825c0 2.11-1.68 3.824-3.75 3.824-2.07 0-3.75-1.713-3.75-3.824 0-2.112 1.68-3.825 3.75-3.825 2.07 0 3.75 1.713 3.75 3.825" fill="#34A853"/></g></svg>