<svg viewBox="0 0 48 48" xmlns="http://www.w3.org/2000/svg"><g fill="none"><path d="M15.398 16.675l-3.362 7.399c.643 4.45-.446 6.846-3.266 7.186L5.5 23.922l5.44-11.985c.895-1.982 2.56-3.167 4.455-3.167s3.56 1.185 4.455 3.168L30.497 35.64l5.32-11.69c1.108-.562 2.216 1.873 3.323 7.305l-3.68 8.05c-1.013 2.235-2.87 3.57-4.968 3.57-2.097 0-3.954-1.335-4.967-3.572L15.398 16.675z" fill="#174EA6"/><path d="M35.483 8.688c-1.008-2.23-2.853-3.563-4.94-3.563-2.085 0-3.933 1.332-4.94 3.565L15.396 31.335l-3.312-7.367-3.313 7.292 2.17 4.812c.896 1.983 2.56 3.168 4.456 3.168 1.895 0 3.56-1.185 4.454-3.168l10.693-23.727 8.595 18.943 3.36-7.366-7.017-15.235z" fill="#4285F4"/></g></svg>