<svg viewBox="0 0 48 48" xmlns="http://www.w3.org/2000/svg"><g fill="none"><path d="M15.295 12.55a3.75 3.75 0 0 1 3.911 6.4l-13.5 8.25-3.91-6.4 13.5-8.25z" fill="#EA4335"/><path d="M1.793 27.188a3.75 3.75 0 0 1 3.915-6.397l13.5 8.26a3.75 3.75 0 1 1-3.915 6.398l-13.5-8.26z" fill="#4285F4"/><path d="M46.208 27.188l-3.915-6.397-13.5 8.26a3.75 3.75 0 0 0 3.915 6.398l13.5-8.26z" fill="#FBBC05"/><path d="M32.706 12.55a3.75 3.75 0 0 0-3.91 6.4l13.5 8.25a3.75 3.75 0 0 0 3.91-6.4l-13.5-8.25z" fill="#34A853"/></g></svg>