<svg viewBox="0 0 48 48" xmlns="http://www.w3.org/2000/svg"><g fill="none" fill-rule="evenodd"><path d="M27.49 6l.586.003a2.786 2.786 0 012.779 2.587l.007.2v6.953h-3.389v-6.73l-3.574-.004L21.5 7.25 23.899 6h3.591z" fill="#212121"/><path d="M23.899 6v3.009h-3.322l-.005.003v6.728h-3.39V8.79a2.786 2.786 0 012.786-2.787h.54L20.51 6h3.389z" fill="#424242"/><path d="M4 24.75V14.556a2.565 2.565 0 012.567-2.566H26.5v12.76H4z" fill="#4480F3"/><path d="M24.05 23.5V11.993h17.325A2.625 2.625 0 0144 14.618V23.5H24.05z" fill="#296AD3"/><path d="M41.642 41.004H24.05l-2.5-18.724H44v16.366a2.357 2.357 0 01-2.358 2.358z" fill="#90CAF9"/><path d="M6.358 41.004H24.05V22.28H4v16.366a2.357 2.357 0 002.358 2.358z" fill="#BBDEFB"/><path fill="#FBC02D" d="M24.084 20.478h3.344v3.608h-3.344L22.75 22.25z"/><path fill="#FDD835" d="M24.084 20.478v3.608h-3.512v-3.608z"/></g></svg>