<svg viewBox="0 0 48 48" xmlns="http://www.w3.org/2000/svg"><g fill="none"><path d="M41.873 24c0-2.226 1.83-4 4.127-4v-9.009C46 9.321 44.6 8 42.914 8H5.086C3.364 8 2 9.357 2 10.991V20c2.297 0 4.127 1.774 4.127 4S4.297 28 2 28v9.009C2 38.679 3.4 40 5.086 40h37.828C44.636 40 46 38.643 46 37.009V28c-2.261 0-4.127-1.774-4.127-4z" fill="#34A853"/><path d="M46 36.834V35.19L31.906 21.237l-2.397-.214-5.58-5.58-2.075 5.616-5.939.178 4.615 4.615-1.538 4.83L28.257 40h14.56c1.68-.036 3.183-1.485 3.183-3.166z" fill-opacity=".1" fill="#000"/><path fill="#FBBC05" d="M23.928 27.676l4.937 2.97-1.288-5.617 4.364-3.792-5.759-.465-2.254-5.33-2.253 5.33-5.76.465 4.365 3.792-1.288 5.617z"/></g></svg>