<svg viewBox="0 0 48 48" xmlns="http://www.w3.org/2000/svg"><g fill="none"><path d="M27.555 32.172l7 .003-9.71 12.653A3.006 3.006 0 0 1 22.465 46h-5.52l10.61-13.828zM9 37.763l-2.265 2.946-1.748-2.28L2 37.763l.455-.59A2.998 2.998 0 0 1 4.832 36c3.112 0 4.501.587 4.168 1.762z" fill="#E0E0E0"/><path d="M24 2c-.727 0-1.454.263-2.027.788L5.753 17.65a3 3 0 0 0-.353 4.038h37.197a3 3 0 0 0-.352-4.038L26.025 2.788A2.989 2.989 0 0 0 24 2z" fill="#4285F4"/><path d="M11.011 29H36.99L26.38 42.825a3 3 0 0 1-4.76 0L11.011 29z" fill="#FBBC05"/><path d="M35.452 31.002L24 30l-11.452 1.002L5.4 21.688a2.992 2.992 0 0 1-.614-2.007L24 18l19.214 1.681a2.983 2.983 0 0 1-.614 2.006l-7.148 9.315z" fill="#34A853"/><path d="M22.465 46a3.006 3.006 0 0 1-2.38-1.172l-5.873-7.653a2.998 2.998 0 0 0-2.38-1.172h-7c.933 0 1.813.434 2.38 1.172l5.873 7.653A2.998 2.998 0 0 0 15.465 46h7z" fill="#F5F5F5"/><path d="M24 43.999V2c.726 0 1.453.263 2.025.788l16.22 14.862a2.996 2.996 0 0 1 .968 2.031h.001a2.983 2.983 0 0 1-.614 2.006L26.38 42.826A2.982 2.982 0 0 1 24 43.999z" fill-opacity=".15" fill="#FFF"/></g></svg>