<svg viewBox="0 0 48 48" xmlns="http://www.w3.org/2000/svg"><g fill="none"><path d="M15.74 36.003a2.305 2.305 0 110 4.61 2.305 2.305 0 010-4.61zm0-9.606a2.305 2.305 0 110 4.611 2.305 2.305 0 010-4.61zm0-9.605a2.305 2.305 0 110 4.61 2.305 2.305 0 010-4.61zm0-9.605a2.305 2.305 0 110 4.61 2.305 2.305 0 010-4.61z" fill="#EA4335"/><path d="M24 40.613a2.69 2.69 0 110 5.38 2.69 2.69 0 010-5.38zm0-9.797a2.69 2.69 0 110 5.379 2.69 2.69 0 010-5.38zm0-9.605a2.69 2.69 0 110 5.379 2.69 2.69 0 010-5.38zm0-9.606a2.69 2.69 0 110 5.38 2.69 2.69 0 010-5.38zM24 2a2.69 2.69 0 110 5.379A2.69 2.69 0 0124 2z" fill="#FBBC04"/><path d="M32.165 35.234a3.17 3.17 0 110 6.34 3.17 3.17 0 010-6.34zm0-9.605a3.17 3.17 0 110 6.34 3.17 3.17 0 010-6.34zm0-9.605a3.17 3.17 0 110 6.34 3.17 3.17 0 010-6.34zm0-9.606a3.17 3.17 0 110 6.34 3.17 3.17 0 010-6.34z" fill="#34A853"/><path d="M40.329 29.855a3.65 3.65 0 110 7.3 3.65 3.65 0 010-7.3zm-32.85 1.73a1.921 1.921 0 110 3.841 1.921 1.921 0 010-3.842zm32.85-11.335a3.65 3.65 0 110 7.3 3.65 3.65 0 010-7.3zm-32.85 1.73a1.921 1.921 0 110 3.842 1.921 1.921 0 010-3.842zm32.85-11.334a3.65 3.65 0 110 7.3 3.65 3.65 0 010-7.3zm-32.85 1.729a1.921 1.921 0 110 3.842 1.921 1.921 0 010-3.842z" fill="#4285F4"/></g></svg>