<svg viewBox="0 0 48 48" xmlns="http://www.w3.org/2000/svg"><g fill="none"><path d="M42.313 8H5.78C4.813 8 4 8.792 4 9.737v28.434C4 39.116 4.813 40 5.781 40h11.032v-1.31c0-.58.343-1.037.937-1.037.594 0 .938.457.938 1.037V40h10.625v-1.31c0-.58.5-1.037 1.093-1.037.594 0 1.094.457 1.094 1.037V40h10.813C43.28 40 44 39.147 44 38.171V9.737C44 8.792 43.281 8 42.312 8z" fill="#34A853"/><path d="M24.063 21.349c-1.95 0-3.532-1.542-3.532-3.444s1.581-3.444 3.532-3.444c1.95 0 3.53 1.542 3.53 3.444s-1.58 3.444-3.53 3.444zm1.906 1.066c7.343.396 8.656 2.956 9.562 8.595v.06c0 .275-.156.549-.468.58H32.25c-.375 0-.594-.458-.625-.61-.469-2.59-1.25-2.834-2.125-2.865h-.094v3.505h-10.5v-2.773c-.031-1.31-.593-1.86-1.312-2.347-.782-.549-1.688-1.128-2.532-1.92-3.406-3.749-3.218-8.381-1.093-8.747.937-.152 1.344.122 1.687.457.25.275.438.64.469 1.067.344 3.17 2.063 4.267 3.344 4.602 1.156.305 3.968.274 6.5.396z" fill="#FFF"/></g></svg>