<svg viewBox="0 0 48 48" xmlns="http://www.w3.org/2000/svg"><path d="M39.737 8.635a.074.074 0 00-.013-.01l-.02-.022c-.301-.302-.55-.465-.636-.398-.058.044-.037.182.044.376l.039.086c1.368 3.337.638 8.54-2.19 15.498-2.247 5.522-5.056 10.175-5.084 10.223a.477.477 0 01-.812.003c-.029-.047-2.892-4.71-5.197-10.24-3.135-7.52-3.795-12.992-1.97-16.266 1.27-2.274 3.714-3.426 7.268-3.426h.305a13.97 13.97 0 011.714.1h.024c.263.04.492.035.522-.043.055-.139-.378-.436-1.004-.715l-.172-.074A21.89 21.89 0 0024 2C11.85 2 2 11.85 2 24s9.85 22 22 22 22-9.85 22-22a21.918 21.918 0 00-6.263-15.365zm-5.185 29.638a.24.24 0 01-.24.24h-5.775a.24.24 0 01-.24-.24v-1.036a.24.24 0 01.24-.24h5.775a.24.24 0 01.24.24v1.036z" fill="#424242"/></svg>