<svg viewBox="0 0 48 48" xmlns="http://www.w3.org/2000/svg"><g fill="none" fill-rule="evenodd"><path d="M5 10h38v30a3 3 0 0 1-3 3H8a3 3 0 0 1-3-3V10z" fill="#4285F4"/><path d="M43 10L3 21.9 24.1 43H40a3 3 0 0 0 3-3V10z" fill-opacity=".1" fill="#000"/><path d="M34 37.5a3.5 3.5 0 1 1 1.924-6.424l1.433-1.433A5.5 5.5 0 1 0 39.409 33H34v2h3.355A3.502 3.502 0 0 1 34 37.5z" fill="#FFF"/><path d="M29 17l-5 2a5.5 5.5 0 1 1-11 0l16-4 17 4a5.5 5.5 0 1 1-11 0l-6-2z" fill="#3F4DAC"/><path d="M18 17l-5 2a5.5 5.5 0 1 1-11 0l16-4 17 4a5.5 5.5 0 1 1-11 0l-6-2z" fill="#7CA4E7"/><path d="M33 5h6.737a3 3 0 0 1 2.885 2.176L46 19H35L29 9l-5 10H13L8 8l7-3h9l5 3 4-3z" fill="#4756BB"/><path d="M5.378 7.176A3 3 0 0 1 8.263 5H15l-2 14H2L5.378 7.176zM33 5l2 14H24V5h9z" fill="#80ADFA"/></g></svg>