<svg viewBox="0 0 48 48" xmlns="http://www.w3.org/2000/svg"><g fill="none"><path d="M26.414 35.801l6.64-6.64 2.408 2.407-6.65 6.65a5.377 5.377 0 01-1.014 6.183 5.307 5.307 0 01-3.797 1.572c-1.44 0-2.776-.55-3.798-1.572a5.367 5.367 0 01-1.388-5.185 5.312 5.312 0 011.388-2.41 5.307 5.307 0 013.798-1.571c.856 0 1.675.194 2.413.566zm-3.801 3.415c-.236.235-.42.55-.498.89a2.041 2.041 0 00.498 1.912c.733.733 2.042.733 2.776 0 .76-.76.76-2.017 0-2.776A1.962 1.962 0 0024 38.666c-.524 0-1.022.157-1.388.55z" fill="#34A853"/><path d="M38.224 19.172a5.377 5.377 0 016.205 1.004 5.374 5.374 0 010 7.595 5.376 5.376 0 01-3.798 1.571 5.367 5.367 0 01-5.186-6.757c.09-.347.217-.683.375-1.002l-6.629-6.629 2.408-2.407 6.625 6.625zm1.019 3.413c-.236.236-.419.55-.498.89a2.042 2.042 0 00.498 1.912c.76.76 2.017.76 2.776 0 .76-.76.76-2.016 0-2.776a1.943 1.943 0 00-1.388-.576 1.779 1.779 0 00-1.388.55z" fill="#4285F4"/><path d="M19.189 9.752a5.355 5.355 0 01-.374-3.771 5.312 5.312 0 011.388-2.41A5.307 5.307 0 0124.001 2c1.44 0 2.776.55 3.797 1.571A5.307 5.307 0 0129.37 7.37c0 1.44-.55 2.776-1.572 3.797a5.376 5.376 0 01-6.209 1l-6.614 6.615-2.408-2.407 6.622-6.622zm3.424-3.797c-.236.235-.42.55-.498.89a2.041 2.041 0 00.498 1.912c.76.76 2.016.76 2.776 0A1.962 1.962 0 0024 5.405c-.524 0-1.022.183-1.388.55z" fill="#EA4335"/><path d="M12.168 26.389l6.644 6.644-2.407 2.408-6.655-6.655a5.376 5.376 0 01-6.178-1.016 5.367 5.367 0 01-1.387-5.185 5.312 5.312 0 011.388-2.41 5.374 5.374 0 017.595 0 5.377 5.377 0 011 6.214zm-6.16-3.804a1.88 1.88 0 00-.497.89 2.04 2.04 0 00.497 1.912c.76.76 2.017.76 2.776 0 .76-.76.76-2.016 0-2.776a1.943 1.943 0 00-1.388-.576 1.745 1.745 0 00-1.388.55z" fill="#FBBC05"/></g></svg>