<svg viewBox="0 0 48 48" xmlns="http://www.w3.org/2000/svg"><g fill="none" fill-rule="evenodd"><path fill="#FFCA28" d="M25 28l15-12v24z"/><path d="M28 26v4L12 44h-1a3 3 0 01-3-3v-9.84a1.5 1.5 0 012.694-.908l.032.046a4 4 0 10-.002-4.593A1.5 1.5 0 018 24.84V15a3 3 0 013-3h1l16 14z" fill="#3FC4FF"/><path d="M40 15v1L28 28 12 12h8.84a1.5 1.5 0 001.493-1.356l.007-.144c0-.506-.25-.954-.635-1.224a4 4 0 114.593-.002l-.046.032A1.5 1.5 0 0027.16 12H37a3 3 0 013 3z" fill="#01E675"/><path d="M12 44h25.5a2.5 2.5 0 002.5-2.5V40L28 28 12 44z" fill="#FF3A44"/></g></svg>