<svg viewBox="0 0 48 48" xmlns="http://www.w3.org/2000/svg"><g fill="none"><path d="M42.672 15.953l3.248 19.186c0 .242.08.484.08.723 0 2.412-1.929 4.339-4.26 4.339-1.205 0-2.25-.484-3.054-1.207l-7.67-7.726H16.307l2.726-2.723 23.639-12.592z" fill="#00B359"/><path d="M15.824 7C10.6 7 6.259 10.295 5.135 17.046A6234.155 6234.155 0 012.08 35.129c0 .242-.08.483-.08.723 0 2.412 1.929 4.338 4.26 4.338 1.205 0 2.25-.483 3.054-1.206l10.288-10.45H32.22c5.787 0 10.609-4.822 10.609-10.688C42.83 11.822 38.009 7 32.219 7H15.825z" fill="#00E26B"/><path d="M32.06 20.019a1.687 1.687 0 110 3.374 1.687 1.687 0 010-3.374zm-15.03-6.993v3.698h3.699v2.652H17.03v3.698h-2.65v-3.698h-3.7v-2.652h3.699v-3.698h2.651zm18.726 3.377a1.687 1.687 0 110 3.374 1.687 1.687 0 010-3.374zm-7.391 0a1.687 1.687 0 110 3.374 1.687 1.687 0 010-3.374zm3.695-3.696a1.687 1.687 0 110 3.374 1.687 1.687 0 010-3.374z" fill="#FAFAFA"/></g></svg>