<svg viewBox="0 0 48 48" xmlns="http://www.w3.org/2000/svg"><g fill="none" fill-rule="evenodd"><path d="M27.482 3.44l5.553 5.553 2.986 2.986-.354 8.132-7.424-.354L24 15.515l-4.243 4.242-8.838 1.061 1.06-8.838L16.4 7.557l4.117-4.117.16-.152a4.95 4.95 0 016.804.153z" fill="#01E675"/><path d="M10.919 26.475l8.838 1.768L24 32.485l4.243-4.242 7.424.353.354 7.425-9.061 9.061a4.951 4.951 0 01-6.399-.48l-8.582-8.581-1.06-9.546z" fill="#FF3A44"/><path d="M36.02 11.98l7.779 7.777.784.784a4.951 4.951 0 01.497 6.422l-9.06 9.058-7.777-7.778L32.485 24l-4.242-4.243 7.778-7.778z" fill="#FFCA28"/><path d="M12.02 12.021l7.737 7.736L15.515 24l4.242 4.243-7.778 7.778L3.5 27.54a4.95 4.95 0 010-7l8.52-8.52z" fill="#3FC4FF"/></g></svg>