<svg viewBox="0 0 48 48" xmlns="http://www.w3.org/2000/svg"><g fill="none" fill-rule="evenodd"><circle fill="#EDC5C3" cx="24" cy="24" r="22"/><path d="M24 8a1.5 1.5 0 011.5 1.5v10.878l7.692-7.692a1.5 1.5 0 012.122 2.122L27.62 22.5H38.5a1.5 1.5 0 010 3H27.621l7.693 7.692a1.5 1.5 0 01-2.122 2.122L25.5 27.62V38.5a1.5 1.5 0 01-3 0V27.62l-7.692 7.694a1.5 1.5 0 01-2.122-2.122l7.692-7.692H9.5a1.5 1.5 0 010-3h10.879l-7.693-7.692a1.5 1.5 0 012.122-2.122L22.5 20.38V9.5A1.5 1.5 0 0124 8z" fill="#EA4335"/><circle fill="#972722" cx="24" cy="24" r="12"/><path d="M24 31a1.5 1.5 0 110 3 1.5 1.5 0 010-3zm4.5-4a1.5 1.5 0 110 3 1.5 1.5 0 010-3zm-9 0a1.5 1.5 0 110 3 1.5 1.5 0 010-3zm4.5-4.5a1.5 1.5 0 110 3 1.5 1.5 0 010-3zm8.5 0a1.5 1.5 0 110 3 1.5 1.5 0 010-3zm-17 0a1.5 1.5 0 110 3 1.5 1.5 0 010-3zm13-4.5a1.5 1.5 0 110 3 1.5 1.5 0 010-3zm-9 0a1.5 1.5 0 110 3 1.5 1.5 0 010-3zm4.5-4a1.5 1.5 0 110 3 1.5 1.5 0 010-3z" fill="#EA4335"/></g></svg>