<svg viewBox="0 0 48 48" xmlns="http://www.w3.org/2000/svg"><g fill="none" fill-rule="evenodd"><path d="M38 8H10c-2.22 0-3.98 1.8-3.98 4L6 40a4 4 0 004 4h28c2.2 0 4-1.8 4-4V12c0-2.2-1.8-4-4-4z" fill="#4285F4" fill-rule="nonzero"/><path d="M14 4a2 2 0 012 2v4a2 2 0 11-4 0V6a2 2 0 012-2zm20 0a2 2 0 012 2v4a2 2 0 11-4 0V6a2 2 0 012-2z" fill="#FBBC05"/><path fill="#FFF" d="M10 18h28v22H10z"/><ellipse fill="#34A853" cx="29" cy="35" rx="5" ry="3"/><path d="M29 15c3.87 0 7 3.13 7 7 0 5.25-7 13-7 13s-7-7.75-7-13c0-3.87 3.13-7 7-7zm0 4.5a2.5 2.5 0 000 5 2.5 2.5 0 000-5z" fill="#EA4335" fill-rule="nonzero"/></g></svg>