<svg viewBox="0 0 48 48" xmlns="http://www.w3.org/2000/svg"><g fill="none"><path d="M40 10a2 2 0 012 2v6c0 5.478-4.286 8-7.794 8H30l4.206-3C35.864 23 39 21.956 39 18v-5H9v5c0 3.956 3.136 5 4.794 5L18 26h-4.206C10.286 26 6 23.478 6 18v-6a2 2 0 012-2h32z" fill="#34A853"/><path fill="#F9AB00" d="M24 6l4 2v26l-4 1-4-1V14l-8-5V6z"/><path d="M34 42H14v-4a2 2 0 012-2h15.942c1.136 0 2.058.896 2.058 2v4z" fill="#4285F4"/><path fill="#F29900" d="M24 10l12-1V6H24z"/><path fill="#EA4335" d="M20 36h8v-2h-8z"/><path d="M12 9v10.177c0 6.535 5.092 11.985 11.536 12.15a17.589 17.589 0 00.926 0C30.908 31.162 36 25.712 36 19.177V9H12z" fill="#FBBC04"/><path fill="#FFF" d="M30.681 16.79l-4.804-.403-1.876-4.394-1.879 4.394-4.804.403 3.649 3.136-1.096 4.66 4.13-2.473 4.127 2.473-1.095-4.66z"/></g></svg>