<svg viewBox="0 0 48 48" xmlns="http://www.w3.org/2000/svg"><defs><linearGradient x1="38.095%" y1="28.203%" x2="67.913%" y2="60.081%" id="a"><stop stop-color="#FF4C1D" offset="10%"/><stop stop-color="#FC4A1F" offset="31.55%"/><stop stop-color="#F24226" offset="48.85%"/><stop stop-color="#E13532" offset="64.68%"/><stop stop-color="#C92343" offset="79.64%"/><stop stop-color="#AB0C58" offset="93.84%"/><stop stop-color="#9B0063" offset="100%"/></linearGradient></defs><path d="M43.595 14.777c-3.227-1.83-20.047-10.112-39.258 3.658a.801.801 0 00-.267.978l3.827 8.692a.802.802 0 001.005.433c2.508-.896 11.188-3.73 16.806-2.2 0 0-5.635.327-10.73 4.33a.8.8 0 00-.236.952l1.715 3.885.66 1.55c.158.367.66.413.88.08 1.19-1.795 3.193-2.69 5.12-3.472a29.363 29.363 0 016.13-1.755c2.238-.38 4.523-.48 6.785-.28a.803.803 0 00.84-.56l1.73-5.538a.803.803 0 00-.292-.888c-1.928-1.4-9.568-6.102-23.003-4.212 0 0 11.466-6.6 26.018.65a.8.8 0 001.12-.48l1.525-4.885a.817.817 0 00-.375-.938z" fill="url(#a)" fill-rule="nonzero"/></svg>