<svg viewBox="0 0 48 48" xmlns="http://www.w3.org/2000/svg"><g fill="none"><path d="M24 6c.414 0 .829.107 1.2.32l13.6 7.807a2.382 2.382 0 011.2 2.066v15.613c0 .434-.118.85-.332 1.211l-20.871 4.065L24 6z" fill="#80DEEA"/><path d="M24 29.08L8.33 33.01A2.381 2.381 0 018 31.813v-15.62c.002-.853.46-1.64 1.2-2.064l4.09-2.347.004-.002L22.8 6.32c.365-.21.779-.32 1.2-.32v23.08z" fill="#7E57C2"/><path d="M8.33 33.01c.21.358.51.655.87.86l.005.001 13.595 7.81a2.411 2.411 0 002.4 0l4.887-2.806L24 24 8.33 33.01z" fill="#FFCA28"/><path d="M34.464 30.017l5.208 2.994a2.39 2.39 0 01-.872.862l-4 2.296a2.825 2.825 0 01-.094.05l-4.623 2.656L24 35.6l3.961-7.374 6.503 1.79z" fill="#DC9856"/><path fill="#CACACA" d="M24 15.6L34.4 30 24 35.6l-3.6-9.293z"/><path fill="#FBFBFB" d="M24 15.6v20L13.6 30z"/><path d="M14.833 21.348c1.382-.525 2.483-2.213 2.46-3.772-.024-1.558-1.164-2.397-2.545-1.872-1.382.525-2.483 2.213-2.46 3.772.024 1.558 1.164 2.396 2.545 1.872z" fill="#FFF"/></g></svg>