<svg viewBox="0 0 48 48" xmlns="http://www.w3.org/2000/svg"><g fill="none"><circle fill="#00E89D" cx="24" cy="24" r="22"/><path d="M14.39 28.517L21.38 16.5l5.235 2.983-6.99 12.014-5.235-2.98zm13.98 0L35.36 16.5l5.235 2.98-6.987 12.017-5.238-2.98z" fill="#0078FF"/><path d="M41 17.99c0 1.65-1.352 2.99-3.02 2.99-1.667 0-3.02-1.34-3.02-2.99 0-1.65 1.352-2.99 3.02-2.99S41 16.34 41 17.99zM17.008 33a3.031 3.031 0 0 1-2.623-1.5L7.403 19.485a2.976 2.976 0 0 1 1.112-4.082c1.445-.823 3.295-.33 4.125 1.1l6.99 12.014c.83 1.43.332 3.26-1.113 4.083-.474.27-.992.4-1.51.4zm13.98 0a3.031 3.031 0 0 1-2.623-1.5l-6.982-12.015a2.976 2.976 0 0 1 1.112-4.082c1.445-.823 3.295-.33 4.125 1.1l6.99 12.014c.83 1.43.333 3.26-1.112 4.083-.475.27-.993.4-1.51.4z" fill="#FFF"/></g></svg>