<svg viewBox="0 0 48 48" xmlns="http://www.w3.org/2000/svg"><g fill="none" fill-rule="nonzero"><path d="M22.213 1.868c.982-.569 2.59-.569 3.574 0l16.426 9.516c.982.569 1.787 1.982 1.787 3.14v18.96c0 1.159-.805 2.571-1.787 3.14L25.787 46.14c-.982.57-2.59.57-3.574 0L5.787 36.625C4.805 36.055 4 34.643 4 33.484v-18.96c0-1.158.805-2.571 1.787-3.14l16.426-9.516z" fill="#F5221B"/><path d="M25.487 38.356c-.424.244-.954.366-1.48.366-.53 0-1.06-.122-1.481-.366l-10.187-5.897C11.494 31.97 11 30.865 11 29.888V18.094c0-.978.494-2.085 1.339-2.571l10.187-5.876c.845-.49 2.116-.49 2.961 0l10.184 5.876c.845.488 1.329 1.593 1.329 2.571v11.794c0 .977-.484 2.082-1.329 2.571l-10.184 5.897zm-.834-27.293c-.163-.097-.409-.145-.654-.143-.246 0-.489.049-.655.143l-9.998 5.8c-.33.191-.805.636-.846 1.375v11.599c0 .61.517 1.11.846 1.301l9.998 5.8c.33.191.98.191 1.31 0l9.997-5.8c.332-.19.849-.55.849-1.301V18.238c0-.739-.52-1.184-.849-1.375l-9.998-5.8zM20 30.5v-13L31.5 24 20 30.5z" fill="#FFF"/></g></svg>