<svg viewBox="0 0 48 48" xmlns="http://www.w3.org/2000/svg"><g fill="none" fill-rule="nonzero"><path d="M46 23.478c0 .146-.006.289-.012.437.003.12.01.24.01.359a15.15 15.15 0 01-2.676 8.622A14.16 14.16 0 0138.32 37.5a15.107 15.107 0 01-7.53 1.999c-.122 0-.244-.006-.367-.009-.143.003-.282.009-.425.009-3.634 0-7.862-2.37-10.275-3.832C17.2 34.21 10.5 30.212 6.374 27.429L2.87 25.107c-.148-.11-.56-.35-.632-.42A.87.87 0 012 24.09c0-.297.105-.49.3-.618.152-.099.359-.227.487-.297l21.056-12.367v.006c2.083-1.119 4.443-2.063 6.946-2.063l.452.003C37.801 8.594 46 14.63 46 23.478zM23.44 9.255l-.5.292-13.594 7.955a273.72 273.72 0 01-4.138-2.416c-.539-.309-.635-.527-.635-.912 0-.434.455-.583.737-.705l.653-.201L25.06 8.32l-1.62.935z" fill="#F5221B"/><path fill="#FFF" d="M26 30.5l11-6.374-11-6.376z"/></g></svg>