<svg viewBox="0 0 16 16" height="38" width="38" xmlns="http://www.w3.org/2000/svg"><g fill="none" fill-rule="evenodd"><path d="M0 1.337A1.33 1.33 0 011.337 0h13.326C15.402 0 16 .595 16 1.33V12l-3 1-1 3H1.33C.595 16 0 15.412 0 14.663V1.337z" fill="#FBBC05"/><path d="M5.998 12.667L6.33 9.92 5.288 8.877S3.33 6 5.665 3.667c2.333-2.334 5.043-.21 5.043-.21l5.29 5.29L16 12l-3 1-1 3H9.331l-3.333-3.333z" fill-opacity=".1" fill="#BF360C"/><path d="M10 9.438a3.833 3.833 0 10-4 0v3.229h.667v.666h2.666v-.666H10v-3.23zm-3.333.11V9.04a3.167 3.167 0 112.666 0v1.627H6.667v-1.12zm0 1.785h2.666V12H6.667v-.667z" fill="#FFF"/><path d="M12 13.5c0-.828.679-1.5 1.5-1.5H16l-4 4v-2.5z" fill="#FBDC7D"/></g></svg>