<?xml version="1.0" encoding="UTF-8"?>
<svg width="72px" height="72px" viewBox="0 0 72 72" version="1.1" xmlns="http://www.w3.org/2000/svg" xmlns:xlink="http://www.w3.org/1999/xlink">
    <!-- Generator: Sketch 55.2 (78181) - https://sketchapp.com -->
    <title>auto</title>
    <desc>Created with Sketch.</desc>
    <g id="auto" stroke="none" stroke-width="1" fill="none" fill-rule="evenodd">
        <path d="M8,0 L48,0 L50.5,15 L0,62 L0,8 C0,3.581722 3.581722,0 8,0 Z" id="Path" fill="#DDDDDD"></path>
        <path d="M64,72 L8,72 C3.581722,72 0,68.418278 0,64 L0,61 L48,13 L48,0 L64,0 C68.418278,0 72,3.581722 72,8 L72,64 C72,68.418278 68.418278,72 64,72 Z" id="Path" fill="#5C6062"></path>
        <path d="M8,1 L48,1 L48,16.5 L1,60 L1,8 C1,4.13400675 4.13400675,1 8,1 Z" id="b" fill="#FFFFFF"></path>
        <path d="M49,1 L64,1 C67.8659932,1 71,4.13400675 71,8 L71,64 C71,67.8659932 67.8659932,71 64,71 L49,71 L49,1 Z" id="a" fill="#2D2D2D"></path>
        <path d="M48,13 L48,71 L8,71 C4.13400675,71 1,67.8659932 1,64 L1,60 L48,13 Z" id="Rectangle" fill="#3C4043"></path>
        <polygon id="Shape" fill="#FFFFFF" fill-rule="nonzero" points="36 25 36 32.035 40.965 37 36 41.965 36 49 28.965 49 24 53.965 19.035 49 12 49"></polygon>
        <polygon id="Shape" fill="#3C4043" points="12 49 12 41.965 7.035 37 12 32.035 12 25 19.035 25 24 20.035 28.965 25 36 25"></polygon>
    </g>
</svg>